<?xml version="1.0" encoding="UTF-8" standalone="no"?>
<svg width="256" height="256" viewBox="0 0 256 256" fill="none" xmlns="http://www.w3.org/2000/svg">
  <rect width="256" height="256" rx="36" fill="#3498DB"/>
  <circle cx="128" cy="128" r="96" fill="white"/>
  <path d="M128 48C83.8 48 48 83.8 48 128C48 172.2 83.8 208 128 208C172.2 208 208 172.2 208 128C208 83.8 172.2 48 128 48ZM128 192C92.8 192 64 163.2 64 128C64 92.8 92.8 64 128 64C163.2 64 192 92.8 192 128C192 163.2 163.2 192 128 192Z" fill="#2980B9"/>
  <path d="M96 112C104.8 112 112 104.8 112 96C112 87.2 104.8 80 96 80C87.2 80 80 87.2 80 96C80 104.8 87.2 112 96 112Z" fill="#2980B9"/>
  <path d="M160 112C168.8 112 176 104.8 176 96C176 87.2 168.8 80 160 80C151.2 80 144 87.2 144 96C144 104.8 151.2 112 160 112Z" fill="#2980B9"/>
  <path d="M128 176C110.4 176 96 161.6 96 144H112C112 152.8 119.2 160 128 160C136.8 160 144 152.8 144 144H160C160 161.6 145.6 176 128 176Z" fill="#E74C3C"/>
  <path d="M164.8 128H91.2C89.6 128 88 126.4 88 124.8V123.2C88 121.6 89.6 120 91.2 120H164.8C166.4 120 168 121.6 168 123.2V124.8C168 126.4 166.4 128 164.8 128Z" fill="#E67E22"/>
</svg> 